<svg width="149" height="130" viewBox="0 0 149 130" fill="none" xmlns="http://www.w3.org/2000/svg">
<path d="M70.5 2.3094C72.9752 0.880339 76.0248 0.880339 78.5 2.3094L101.677 15.6906C104.152 17.1197 105.677 19.7607 105.677 22.6188V49.3812C105.677 52.2393 104.152 54.8803 101.677 56.3094L78.5 69.6906C76.0248 71.1197 72.9752 71.1197 70.5 69.6906L47.3231 56.3094C44.8479 54.8803 43.3231 52.2393 43.3231 49.3812V22.6188C43.3231 19.7607 44.8479 17.1197 47.3231 15.6906L70.5 2.3094Z" fill="#111827"/>
<path d="M81.6676 45.1145L64.8131 52.2164C63.0622 52.9527 61.5403 50.7764 62.8331 49.3855L75.6131 35.5091L82.2403 42.2509C83.124 43.1345 82.8295 44.64 81.6676 45.1145Z" fill="white"/>
<path d="M86.2331 22.5327L75.6131 35.5091L68.9859 28.8C68.1022 27.9 68.3967 26.3946 69.5586 25.92L84.1877 19.7837C85.8895 19.0637 87.4113 21.1091 86.2331 22.5327Z" fill="white"/>
<path d="M1.03125 113.578H5.57812C5.68229 114.495 6.16667 115.24 7.03125 115.812C7.90625 116.375 8.97396 116.656 10.2344 116.656C11.4844 116.656 12.5 116.391 13.2812 115.859C14.0729 115.318 14.4688 114.63 14.4688 113.797C14.4688 113.068 14.1771 112.479 13.5938 112.031C13.0104 111.583 12.0365 111.208 10.6719 110.906L7.73438 110.266C3.59896 109.38 1.53125 107.281 1.53125 103.969C1.53125 101.906 2.33333 100.24 3.9375 98.9688C5.55208 97.6979 7.625 97.0625 10.1562 97.0625C12.7604 97.0625 14.8385 97.6823 16.3906 98.9219C17.9427 100.151 18.7396 101.792 18.7812 103.844H14.3594C14.2865 102.896 13.8646 102.151 13.0938 101.609C12.3333 101.057 11.3594 100.781 10.1719 100.781C9.00521 100.781 8.0625 101.036 7.34375 101.547C6.63542 102.057 6.28125 102.729 6.28125 103.562C6.28125 104.25 6.56771 104.807 7.14062 105.234C7.72396 105.661 8.66667 106.026 9.96875 106.328L12.7031 106.906C14.9635 107.385 16.6094 108.135 17.6406 109.156C18.6719 110.167 19.1875 111.531 19.1875 113.25C19.1875 115.438 18.3646 117.177 16.7188 118.469C15.0729 119.75 12.849 120.391 10.0469 120.391C7.32812 120.391 5.16146 119.786 3.54688 118.578C1.94271 117.359 1.10417 115.693 1.03125 113.578ZM21.7031 120V103.25H26.1094V106.281H26.2031C26.5573 105.26 27.1615 104.448 28.0156 103.844C28.8698 103.24 29.8594 102.938 30.9844 102.938C32.1927 102.938 33.2031 103.24 34.0156 103.844C34.8281 104.438 35.375 105.281 35.6562 106.375H35.75C36.125 105.323 36.776 104.49 37.7031 103.875C38.6406 103.25 39.724 102.938 40.9531 102.938C42.599 102.938 43.9219 103.453 44.9219 104.484C45.9323 105.516 46.4375 106.875 46.4375 108.562V120H41.875V109.703C41.875 108.734 41.6406 107.995 41.1719 107.484C40.7031 106.964 40.026 106.703 39.1406 106.703C38.276 106.703 37.5781 106.99 37.0469 107.562C36.526 108.135 36.2656 108.891 36.2656 109.828V120H31.875V109.562C31.875 108.667 31.6354 107.969 31.1562 107.469C30.6771 106.958 30.0156 106.703 29.1719 106.703C28.3073 106.703 27.6042 107 27.0625 107.594C26.5312 108.188 26.2656 108.953 26.2656 109.891V120H21.7031ZM55.7969 116.969C56.8073 116.969 57.6615 116.677 58.3594 116.094C59.0677 115.5 59.4219 114.755 59.4219 113.859V112.641L55.8906 112.859C55.0365 112.922 54.375 113.135 53.9062 113.5C53.4479 113.865 53.2188 114.344 53.2188 114.938C53.2188 115.562 53.4531 116.057 53.9219 116.422C54.3906 116.786 55.0156 116.969 55.7969 116.969ZM54.2969 120.266C52.6823 120.266 51.3438 119.792 50.2812 118.844C49.2188 117.896 48.6875 116.677 48.6875 115.188C48.6875 113.667 49.25 112.474 50.375 111.609C51.5 110.745 53.1094 110.25 55.2031 110.125L59.4219 109.875V108.766C59.4219 107.995 59.1667 107.391 58.6562 106.953C58.1562 106.516 57.474 106.297 56.6094 106.297C55.776 106.297 55.0938 106.484 54.5625 106.859C54.0417 107.234 53.724 107.74 53.6094 108.375H49.4375C49.5208 106.729 50.224 105.406 51.5469 104.406C52.8698 103.396 54.625 102.891 56.8125 102.891C58.9583 102.891 60.6771 103.401 61.9688 104.422C63.2604 105.443 63.9062 106.797 63.9062 108.484V120H59.5V117.438H59.4062C58.9479 118.312 58.25 119.005 57.3125 119.516C56.375 120.016 55.3698 120.266 54.2969 120.266ZM66.8594 120V103.25H71.2656V106.266H71.3594C71.651 105.203 72.1406 104.391 72.8281 103.828C73.5156 103.266 74.3542 102.984 75.3438 102.984C75.8229 102.984 76.2552 103.042 76.6406 103.156V107.172C76.2135 106.995 75.6615 106.906 74.9844 106.906C73.8594 106.906 72.9844 107.234 72.3594 107.891C71.7344 108.547 71.4219 109.464 71.4219 110.641V120H66.8594ZM79.7344 99.3906H84.2969V103.25H87.3906V106.688H84.2969V114.703C84.2969 115.964 84.9531 116.594 86.2656 116.594C86.6927 116.594 87.0625 116.568 87.375 116.516V119.875C86.8438 120 86.1198 120.062 85.2031 120.062C83.2344 120.062 81.8281 119.708 80.9844 119C80.151 118.292 79.7344 117.12 79.7344 115.484V106.688H77.375V103.25H79.7344V99.3906Z" fill="#111827"/>
<path d="M99.6719 102.984C101.797 102.984 103.469 103.75 104.688 105.281C105.917 106.812 106.531 108.927 106.531 111.625C106.531 114.312 105.927 116.427 104.719 117.969C103.51 119.5 101.854 120.266 99.75 120.266C98.5521 120.266 97.4948 119.995 96.5781 119.453C95.6719 118.901 94.9948 118.146 94.5469 117.188H94.4531V125.469H89.8906V103.25H94.3906V106.172H94.4844C94.9427 105.172 95.6198 104.391 96.5156 103.828C97.4219 103.266 98.474 102.984 99.6719 102.984ZM98.1406 116.594C99.276 116.594 100.177 116.146 100.844 115.25C101.521 114.354 101.859 113.146 101.859 111.625C101.859 110.104 101.521 108.896 100.844 108C100.177 107.094 99.276 106.641 98.1406 106.641C97.026 106.641 96.1302 107.099 95.4531 108.016C94.776 108.922 94.4375 110.125 94.4375 111.625C94.4375 113.135 94.7708 114.344 95.4375 115.25C96.1146 116.146 97.0156 116.594 98.1406 116.594ZM115.359 116.969C116.37 116.969 117.224 116.677 117.922 116.094C118.63 115.5 118.984 114.755 118.984 113.859V112.641L115.453 112.859C114.599 112.922 113.938 113.135 113.469 113.5C113.01 113.865 112.781 114.344 112.781 114.938C112.781 115.562 113.016 116.057 113.484 116.422C113.953 116.786 114.578 116.969 115.359 116.969ZM113.859 120.266C112.245 120.266 110.906 119.792 109.844 118.844C108.781 117.896 108.25 116.677 108.25 115.188C108.25 113.667 108.812 112.474 109.938 111.609C111.062 110.745 112.672 110.25 114.766 110.125L118.984 109.875V108.766C118.984 107.995 118.729 107.391 118.219 106.953C117.719 106.516 117.036 106.297 116.172 106.297C115.339 106.297 114.656 106.484 114.125 106.859C113.604 107.234 113.286 107.74 113.172 108.375H109C109.083 106.729 109.786 105.406 111.109 104.406C112.432 103.396 114.188 102.891 116.375 102.891C118.521 102.891 120.24 103.401 121.531 104.422C122.823 105.443 123.469 106.797 123.469 108.484V120H119.062V117.438H118.969C118.51 118.312 117.812 119.005 116.875 119.516C115.938 120.016 114.932 120.266 113.859 120.266ZM128.469 126.203C127.469 126.203 126.896 126.188 126.75 126.156V122.641C126.844 122.661 127.224 122.672 127.891 122.672C128.734 122.672 129.375 122.526 129.812 122.234C130.25 121.953 130.547 121.479 130.703 120.812C130.703 120.802 130.729 120.672 130.781 120.422C130.833 120.172 130.854 120.036 130.844 120.016L125.016 103.25H130.031L133.594 116.344H133.672L137.234 103.25H142.047L136.281 120.375C135.562 122.521 134.615 124.026 133.438 124.891C132.271 125.766 130.615 126.203 128.469 126.203ZM146.328 119.453C145.839 119.943 145.245 120.188 144.547 120.188C143.849 120.188 143.255 119.943 142.766 119.453C142.276 118.964 142.031 118.37 142.031 117.672C142.031 116.974 142.276 116.38 142.766 115.891C143.255 115.401 143.849 115.156 144.547 115.156C145.245 115.156 145.839 115.401 146.328 115.891C146.818 116.38 147.062 116.974 147.062 117.672C147.062 118.37 146.818 118.964 146.328 119.453Z" fill="#FFAB63"/>
</svg>
